<svg xmlns="http://www.w3.org/2000/svg" xmlns:xlink="http://www.w3.org/1999/xlink" xml:space="preserve" version="1.1" style="shape-rendering:geometricPrecision;text-rendering:geometricPrecision;image-rendering:optimizeQuality;" viewBox="0 0 406 507.5" x="0px" y="0px" fill-rule="evenodd" clip-rule="evenodd"><defs><style type="text/css">
   
    .fil0 {fill:white;fill-rule:evenodd}
   
  </style></defs><g><path class="fil0" d="M203 0c112,0 203,91 203,203 0,112 -91,203 -203,203 -112,0 -203,-91 -203,-203 0,-112 91,-203 203,-203zm0 25c-98,0 -178,80 -178,178 0,98 80,178 178,178 98,0 178,-80 178,-178 0,-98 -80,-178 -178,-178z"/><path class="fil0" d="M96 293c-2,5 -9,7 -14,4 -5,-2 -7,-9 -4,-14 18,-35 50,-60 87,-71 -18,-12 -30,-33 -30,-57 0,-38 30,-68 68,-68 38,0 69,30 69,68 0,24 -12,45 -31,57 37,11 69,36 88,71 3,5 1,12 -5,14 -5,3 -11,1 -14,-4 -21,-40 -62,-65 -107,-65 -45,0 -86,25 -107,65zm107 -185c-26,0 -47,21 -47,47 0,26 21,48 47,48 26,0 48,-22 48,-48 0,-26 -22,-47 -48,-47z"/></g><text x="0" y="421" fill="#000000" font-size="5px" font-weight="bold" font-family="'Helvetica Neue', Helvetica, Arial-Unicode, Arial, Sans-serif"></text><text x="0" y="426" fill="#000000" font-size="5px" font-weight="bold" font-family="'Helvetica Neue', Helvetica, Arial-Unicode, Arial, Sans-serif"></text></svg>