<svg xmlns="http://www.w3.org/2000/svg" xmlns:xlink="http://www.w3.org/1999/xlink" viewBox="0 0 100 125" version="1.1" x="0px" y="0px"><title>Search v2.2</title><desc>Created with Sketch.</desc><g stroke="none" stroke-width="1" fill="none" fill-rule="evenodd"><g fill-rule="nonzero" fill="#000000"><path d="M67.7071068,66.2928932 C68.0976311,66.6834175 68.0976311,67.3165825 67.7071068,67.7071068 C67.3165825,68.0976311 66.6834175,68.0976311 66.2928932,67.7071068 L55.5248266,56.9390401 C55.3273467,56.7415602 54.9919555,56.7264796 54.781446,56.8983838 C54.781446,56.8983838 54.6175999,57.0400329 54.3297627,57.2534408 C52.0020631,58.9792417 49.120237,60 46,60 C38.2680135,60 32,53.7319865 32,46 C32,38.2680135 38.2680135,32 46,32 C53.7319865,32 60,38.2680135 60,46 C60,49.0491433 59.0252271,51.8706162 57.3703046,54.1697956 C57.1223037,54.5143426 56.8985572,54.7782688 56.8985572,54.7782688 C56.7234354,54.9931014 56.7387466,55.3245331 56.9390401,55.5248266 L67.7071068,66.2928932 Z M46,58 C52.627417,58 58,52.627417 58,46 C58,39.372583 52.627417,34 46,34 C39.372583,34 34,39.372583 34,46 C34,52.627417 39.372583,58 46,58 Z"/></g></g><text x="0" y="115" fill="#000000" font-size="5px" font-weight="bold" font-family="'Helvetica Neue', Helvetica, Arial-Unicode, Arial, Sans-serif"></text><text x="0" y="120" fill="#000000" font-size="5px" font-weight="bold" font-family="'Helvetica Neue', Helvetica, Arial-Unicode, Arial, Sans-serif"></text></svg>