<svg xmlns="http://www.w3.org/2000/svg" xmlns:xlink="http://www.w3.org/1999/xlink" version="1.1" x="0px" y="0px" viewBox="0 0 80 100" enable-background="new 0 0 80 80" xml:space="preserve"><path fill-rule="evenodd" clip-rule="evenodd" fill="#000000" d="M56.189,15.583h-3.254v5.091c0,2.078-1.683,3.762-3.761,3.762  s-3.761-1.685-3.761-3.762v-5.091H30.775v5.091c0,2.078-1.682,3.762-3.76,3.762s-3.761-1.685-3.761-3.762v-5.091h-3.254  c-4.042,0-7.319,3.277-7.319,7.319v38.018c0,4.043,3.277,7.318,7.319,7.318H47.56c-2.788-2.98-4.498-6.981-4.498-11.384  c0-9.207,7.463-16.672,16.67-16.672c1.3,0,2.562,0.154,3.776,0.435V22.901C63.508,18.86,60.232,15.583,56.189,15.583z   M34.028,55.988H18.375c-0.955,0-1.729-0.774-1.729-1.729s0.773-1.729,1.729-1.729h15.653c0.955,0,1.729,0.774,1.729,1.729  S34.983,55.988,34.028,55.988z M34.028,44.858H18.375c-0.955,0-1.729-0.774-1.729-1.729s0.773-1.729,1.729-1.729h15.653  c0.955,0,1.729,0.774,1.729,1.729S34.983,44.858,34.028,44.858z M57.815,32.964h-39.44c-0.955,0-1.729-0.772-1.729-1.729  c0-0.954,0.773-1.727,1.729-1.727h39.44c0.954,0,1.729,0.772,1.729,1.727C59.544,32.191,58.77,32.964,57.815,32.964z"/><path fill-rule="evenodd" clip-rule="evenodd" fill="#000000" d="M29.252,19.953c0,1.235-1.002,2.237-2.237,2.237l0,0  c-1.234,0-2.236-1.001-2.236-2.237v-7.521c0-1.235,1.002-2.236,2.236-2.236l0,0c1.235,0,2.237,1.001,2.237,2.236V19.953z"/><path fill-rule="evenodd" clip-rule="evenodd" fill="#000000" d="M51.411,19.953c0,1.235-1.001,2.237-2.236,2.237l0,0  c-1.235,0-2.235-1.001-2.235-2.237v-7.521c0-1.235,1-2.236,2.235-2.236l0,0c1.235,0,2.236,1.001,2.236,2.236V19.953z"/><path fill-rule="evenodd" clip-rule="evenodd" fill="#000000" d="M59.731,43.569c-7.336,0-13.282,5.948-13.282,13.284  c0,7.335,5.946,13.282,13.282,13.282s13.283-5.947,13.283-13.282C73.015,49.518,67.067,43.569,59.731,43.569z M64.818,59.409h-6.114  c-0.203,0-0.396-0.041-0.572-0.112c-0.007-0.004-0.016-0.004-0.023-0.008c-0.078-0.033-0.151-0.076-0.223-0.121  c-0.013-0.007-0.025-0.012-0.037-0.02c-0.05-0.034-0.096-0.077-0.142-0.118c-0.027-0.023-0.059-0.042-0.084-0.068  c-0.026-0.026-0.046-0.058-0.069-0.085c-0.04-0.046-0.083-0.091-0.117-0.142c-0.008-0.011-0.012-0.023-0.02-0.036  c-0.046-0.071-0.088-0.145-0.121-0.224c-0.004-0.007-0.005-0.016-0.008-0.022c-0.071-0.178-0.112-0.369-0.112-0.572v-6.114  c0-0.844,0.684-1.528,1.528-1.528c0.844,0,1.528,0.685,1.528,1.528v4.586h4.586c0.844,0,1.528,0.684,1.528,1.528  S65.662,59.409,64.818,59.409z"/><text x="0" y="95" fill="#000000" font-size="5px" font-weight="bold" font-family="'Helvetica Neue', Helvetica, Arial-Unicode, Arial, Sans-serif"></text><text x="0" y="100" fill="#000000" font-size="5px" font-weight="bold" font-family="'Helvetica Neue', Helvetica, Arial-Unicode, Arial, Sans-serif"></text></svg>